<?xml version="1.0" encoding="UTF-8" standalone="no"?><svg xmlns="http://www.w3.org/2000/svg" xmlns:xlink="http://www.w3.org/1999/xlink" viewBox="0 0 559.8 205.5"><g fill="#e9ecef" transform="translate(0,-846.9)"><path d="m54.3 905q5.6 0 9.7 1.3 4.2 1.3 6.8 4.5 2.8 3 3.9 8.1 1.3 5 1.3 12.5l0 31.4q0 7.7-1.2 12.9-1.2 5-3.8 8-2.6 3-6.8 4.3-4.1 1.2-10 1.2l-33.1 0 0 31.9-17.6 0 0-116 50.7 0zm-33.1 75.3 25.7 0q6.3 0 8.8-3.7 2.5-3.8 2.5-13l0-34.3q0-4.9-0.8-7.9-0.8-3.1-3-4.9-2.1-1.7-5.8-2.2-3.7-0.7-9.6-0.7l-17.8 0 0 66.5z"/><path d="m134.5 905q6 0 10.2 1.2 4.2 1.1 6.7 3.9 2.5 2.8 3.5 7.6 1.2 4.7 1.2 12.1l0 59.3-54.1 0q-9.6 0-13.9-6.6-4.3-6.6-4.3-18.4 0-12.6 4.2-18.9 4.2-6.4 14-6.4l36.4 0 0-10.6q0-8-2.5-11.2-2.5-3.3-8.8-3.3l-31.8 0 0-8.8 39.1 0zm-19.4 42.5q-7.9 0-11.3 3.7-3.3 3.5-3.3 12.5 0 8.7 2.8 12.7 2.9 3.9 10 3.9l25.2 0 0-32.8-23.4 0z"/><path d="m214.1 905q6 0 10.1 1.2 4.2 1.2 6.7 4.1 2.6 2.8 3.7 7.5 1.1 4.7 1.1 11.8l0 59.6-17.3 0 0-57.7q0-10-2.8-13.8-2.6-3.8-8.4-3.8l-24.7 0 0 75.3-17.5 0 0-84.1 49.1 0z"/><path d="m313.4 905 0 7.7 -44.5 67.6 44.5 0 0 8.8 -65.8 0 0 -5.3 47 -70.1 -47 0 0 -8.8 65.8 0z" /><path d="m341.5 961.3q0 5.9 0.7 9.7 0.8 3.7 2.4 5.8 1.7 2 4.5 2.8 2.8 0.8 6.8 0.8l10 0q4.1 0 6.7-0.7 2.8-0.7 4.3-2.5 1.7-2 2.4-5.2 0.8-3.4 0.8-8.9l0-31.8q0-9.6-2.6-13.5-2.5-3.9-8.5-3.9l-16 0q-6 0-8.7 3.9-2.6 3.9-2.6 13.5l0 30.1zm34.7-56.3q5.8 0 9.8 1.3 4.1 1.2 6.7 4.2 2.6 3 3.8 8.1 1.2 5.1 1.2 12.7l0 31.4q0 7.7-1.2 12.9-1.2 5-3.8 8-2.6 3-6.7 4.3-4.1 1.2-9.8 1.2l-30.7 0q-5.9 0-10-1.2-4.1-1.3-6.7-4.3-2.5-3-3.7-8-1.2-5.1-1.2-12.9l0-31.4q0-7.6 1.2-12.7 1.2-5.1 3.7-8.1 2.6-3 6.7-4.2 4.1-1.3 10-1.3l30.7 0z"/><path d="m449.8 905 0 75.3 25.2 0 0 8.8-68.1 0 0-8.8 25.2 0 0-66.4-25.2 0 0-8.9 42.9 0zm1.3-26.8 0 14.7-20.3 0 0-14.7 20.3 0z"/><path d="m538.6 905 0-26.8 17.6 0 0 110.9-48.3 0q-5.6 0-9.7-1.4-4.1-1.4-6.7-4.7-2.6-3.3-3.9-8.7-1.2-5.4-1.2-13.4l0-27.6q0-7.9 1.1-13.3 1.2-5.4 3.7-8.7 2.6-3.4 6.7-4.9 4.2-1.6 10.1-1.6l30.7 0zm-34.8 48q0 9.1 0.8 14.4 0.9 5.4 2.9 8.3 2.1 2.8 5.6 3.7 3.5 0.9 9.1 0.9l16.4 0 0-66.4-23.5 0q-6 0-8.7 4.1-2.6 3.9-2.6 13.7l0 21.4z"/></g></svg>
